<?xml version="1.0" encoding="UTF-8"?>
<svg version="1.1" xmlns="http://www.w3.org/2000/svg" width="500" height="500">
<path d="M0 0 C165 0 330 0 500 0 C500 165 500 330 500 500 C335 500 170 500 0 500 C0 335 0 170 0 0 Z " fill="#FEFEFE" transform="translate(0,0)"/>
<path d="M0 0 C0.483059 1.39449109 0.96125517 2.79066707 1.4375 4.1875 C1.70433594 4.96480469 1.97117187 5.74210938 2.24609375 6.54296875 C4.33016766 13.335106 4.36315082 20.06966447 4.5 27.125 C4.55414063 28.29804688 4.60828125 29.47109375 4.6640625 30.6796875 C4.80470833 39.72120495 2.50725538 44.92289839 -3 52 C-4.06541016 53.51013672 -4.06541016 53.51013672 -5.15234375 55.05078125 C-9.29440458 60.29860011 -13.341908 64.43233608 -19 68 C-20.04285156 68.66 -21.08570313 69.32 -22.16015625 70 C-36.52627087 78.79921987 -51.3709872 82.85273216 -68.13525391 79.34375 C-75.51366353 77.5218664 -82.7558391 75.28916728 -90 73 C-91.8217549 72.4440951 -93.64461059 71.89177975 -95.46875 71.34375 C-96.23767578 71.11236328 -97.00660156 70.88097656 -97.79882812 70.64257812 C-111.39766097 66.67273251 -125.87730723 66.54316799 -139.53125 70.34375 C-142 71 -142 71 -145 71 C-144.47955768 65.42693017 -143.03167904 61.1610865 -140.5 56.1875 C-140.14470215 55.48826416 -139.7894043 54.78902832 -139.42333984 54.06860352 C-132.79783633 41.53914303 -122.67739239 32.88211286 -109.51953125 27.7265625 C-103.15961583 25.89254038 -96.80886526 25.84030029 -90.25 25.875 C-89.35531006 25.87693359 -88.46062012 25.87886719 -87.53881836 25.88085938 C-83.18321058 25.90939215 -78.89495577 26.01163945 -74.5625 26.5 C-69.10978098 27.09230814 -63.6674536 27.18649138 -58.1875 27.25 C-57.2787915 27.27126953 -56.37008301 27.29253906 -55.43383789 27.31445312 C-50.09979015 27.34206768 -46.70920752 26.75804054 -42 24 C-39.75499925 24.24270278 -38.59515008 24.40484992 -37 26 C-36.29693124 30.77082373 -36.47970416 34.11046194 -38.9375 38.3125 C-43.81776708 43.23006633 -49.99193633 45.22744197 -56.8046875 45.390625 C-58.8284981 45.36440984 -60.85213738 45.3172563 -62.875 45.25 C-63.90625 45.23195312 -64.9375 45.21390625 -66 45.1953125 C-67.89716477 45.16063847 -69.79421121 45.1176976 -71.69091797 45.06347656 C-73.46007012 45.01484265 -75.2301795 45 -77 45 C-65.53448518 52.90401975 -54.39190289 54.59780152 -40.72265625 52.49609375 C-29.99219055 50.02850965 -15.46268735 45.60392591 -8.734375 36.23828125 C-7.68256701 33.03250476 -7.8127371 30.11219671 -7.875 26.75 C-7.89304687 25.48671875 -7.91109375 24.2234375 -7.9296875 22.921875 C-7.95289063 21.95765625 -7.97609375 20.9934375 -8 20 C-8.03738281 20.73605469 -8.07476562 21.47210938 -8.11328125 22.23046875 C-8.66096271 30.35977986 -9.9296471 34.22542195 -16 39.75 C-18.44712699 41.8819667 -19.88332758 42.96110919 -23 44 C-23.0814222 41.77144426 -23.13938079 39.54202345 -23.1875 37.3125 C-23.22230469 36.07113281 -23.25710938 34.82976562 -23.29296875 33.55078125 C-22.98350575 29.80008965 -22.31596695 27.93281045 -20 25 C-19.34 25 -18.68 25 -18 25 C-18.03480469 24.04738281 -18.06960938 23.09476563 -18.10546875 22.11328125 C-18.13253906 20.85902344 -18.15960938 19.60476562 -18.1875 18.3125 C-18.22230469 17.07113281 -18.25710938 15.82976562 -18.29296875 14.55078125 C-17.9846829 10.81435679 -17.18088273 8.99370517 -15 6 C-13.35 6.33 -11.7 6.66 -10 7 C-9.54625 5.865625 -9.0925 4.73125 -8.625 3.5625 C-6.28645275 -1.56431513 -5.0882365 -1.20510864 0 0 Z " fill="#9ECD5C" transform="translate(319,199)"/>
<path d="M0 0 C2.19897461 -0.38818359 2.19897461 -0.38818359 4.90234375 -0.3984375 C5.87494141 -0.40230469 6.84753906 -0.40617188 7.84960938 -0.41015625 C9.37811523 -0.39275391 9.37811523 -0.39275391 10.9375 -0.375 C11.95263672 -0.38660156 12.96777344 -0.39820313 14.01367188 -0.41015625 C14.98755859 -0.40628906 15.96144531 -0.40242187 16.96484375 -0.3984375 C18.30470337 -0.39336182 18.30470337 -0.39336182 19.67163086 -0.38818359 C22 0 22 0 23.78271484 1.27416992 C25.2338601 3.33155977 25.41771766 4.5112898 25.51171875 7.01171875 C25.54716797 7.76904297 25.58261719 8.52636719 25.61914062 9.30664062 C25.65297852 10.48516602 25.65297852 10.48516602 25.6875 11.6875 C25.72166016 12.48478516 25.75582031 13.28207031 25.79101562 14.10351562 C25.87338104 16.06851904 25.93837067 18.03423696 26 20 C29.64894317 21.82447159 34.18787258 21.37255487 38.234375 21.51757812 C43.78604386 21.78604386 43.78604386 21.78604386 46 24 C46.25878906 26.21484375 46.25878906 26.21484375 46.265625 28.9375 C46.26949219 30.40316406 46.26949219 30.40316406 46.2734375 31.8984375 C46.26570313 32.92195313 46.25796875 33.94546875 46.25 35 C46.26160156 36.53527344 46.26160156 36.53527344 46.2734375 38.1015625 C46.27085937 39.07867187 46.26828125 40.05578125 46.265625 41.0625 C46.26336914 41.96097656 46.26111328 42.85945313 46.25878906 43.78515625 C46 46 46 46 44 48 C41.12303271 48.28103306 38.32070239 48.46600098 35.4375 48.5625 C30.31193734 48.29305764 30.31193734 48.29305764 26 50 C25.796421 53.58148238 25.65315924 57.15610704 25.5703125 60.7421875 C25.52390625 61.87140625 25.52390625 61.87140625 25.4765625 63.0234375 C25.45674316 63.71356934 25.43692383 64.40370117 25.41650391 65.11474609 C24.8624247 67.62271776 24.07610117 68.50208985 22 70 C19.77929688 70.38818359 19.77929688 70.38818359 17.21875 70.3984375 C16.29449219 70.40230469 15.37023437 70.40617187 14.41796875 70.41015625 C13.45503906 70.39855469 12.49210937 70.38695312 11.5 70.375 C10.53707031 70.38660156 9.57414062 70.39820313 8.58203125 70.41015625 C7.19564453 70.40435547 7.19564453 70.40435547 5.78125 70.3984375 C4.93626953 70.39505371 4.09128906 70.39166992 3.22070312 70.38818359 C0.47766229 69.90869426 -0.39808928 69.2596741 -2 67 C-2.43237305 65.00708008 -2.43237305 65.00708008 -2.51171875 62.76953125 C-2.56489258 61.56586914 -2.56489258 61.56586914 -2.61914062 60.33789062 C-2.64169922 59.50451172 -2.66425781 58.67113281 -2.6875 57.8125 C-2.72166016 56.96751953 -2.75582031 56.12253906 -2.79101562 55.25195312 C-2.87341471 53.16843351 -2.93838645 51.08423784 -3 49 C-4.26457031 48.96261719 -5.52914062 48.92523438 -6.83203125 48.88671875 C-8.4922173 48.82106167 -10.15237222 48.75461424 -11.8125 48.6875 C-12.64587891 48.66494141 -13.47925781 48.64238281 -14.33789062 48.61914062 C-15.14033203 48.58369141 -15.94277344 48.54824219 -16.76953125 48.51171875 C-17.87711792 48.47244263 -17.87711792 48.47244263 -19.00708008 48.43237305 C-21.57621976 47.8749865 -22.47222072 47.12863465 -24 45 C-24.37231445 42.87109375 -24.37231445 42.87109375 -24.36328125 40.4375 C-24.36263672 39.55835938 -24.36199219 38.67921875 -24.36132812 37.7734375 C-24.34521484 36.85820312 -24.32910156 35.94296875 -24.3125 35 C-24.31572266 34.08476562 -24.31894531 33.16953125 -24.32226562 32.2265625 C-24.26721939 25.40082908 -24.26721939 25.40082908 -22 22 C-19.1112488 21.66826333 -16.39421918 21.48740033 -13.5 21.4375 C-7.73517778 21.67530217 -7.73517778 21.67530217 -3 19 C-2.74450442 16.33181321 -2.57994937 13.73610086 -2.5 11.0625 C-2.26979167 3.4046875 -2.26979167 3.4046875 0 0 Z " fill="#028102" transform="translate(236,129)"/>
<path d="M0 0 C1.04220703 -0.01160156 2.08441406 -0.02320312 3.15820312 -0.03515625 C23.46762403 0.04039026 40.6976265 8.80970746 55.25 22.5625 C68.85514858 36.67154298 75.80504627 54.3327018 75.625 73.75 C75.62048828 74.67683594 75.61597656 75.60367188 75.61132812 76.55859375 C75.59961574 78.83079709 75.58321372 81.10286388 75.5625 83.375 C73.9125 82.715 72.2625 82.055 70.5625 81.375 C70.53671875 80.39402344 70.5109375 79.41304688 70.484375 78.40234375 C69.69214853 57.129202 62.92369131 38.01099507 47.1875 23.12890625 C31.64823651 9.95539601 11.65349475 4.78214285 -8.4375 6.375 C-26.52891902 8.7341898 -42.02735771 17.9545879 -53.55859375 31.94921875 C-55.32143223 34.36411791 -56.90869835 36.80644883 -58.4375 39.375 C-58.89640625 40.12910156 -59.3553125 40.88320312 -59.828125 41.66015625 C-68.55534511 57.40595397 -69.91789948 76.36759706 -65.35351562 93.59301758 C-62.98092552 101.59045583 -59.44630791 109.61928732 -54.21875 116.14453125 C-52.4375 118.375 -52.4375 118.375 -52.4375 120.375 C-55.4075 120.87 -55.4075 120.87 -58.4375 121.375 C-68.42682858 106.75085326 -74.00035271 92.15838958 -73.8125 74.375 C-73.82410156 73.27671875 -73.83570313 72.1784375 -73.84765625 71.046875 C-73.78149762 52.43424611 -65.31339246 35.08237505 -52.7109375 21.5625 C-38.18551203 7.5861456 -20.14715444 -0.22344349 0 0 Z " fill="#0B0B0B" transform="translate(246.4375,108.625)"/>
<path d="M0 0 C2.97 -0.103125 5.94 -0.20625 9 -0.3125 C9.91910156 -0.35802002 10.83820313 -0.40354004 11.78515625 -0.45043945 C18.0950078 -0.55528797 22.10725797 1.02015009 27 5 C30.44481215 8.76776329 30.51911143 12.64897942 30.34375 17.56640625 C29.81866742 21.28375221 28.53935993 23.26530469 26 26 C20.24569781 30.07843583 15.9993515 30.52215145 9.0625 30.25 C6.071875 30.1675 3.08125 30.085 0 30 C0 20.1 0 10.2 0 0 Z " fill="#080808" transform="translate(373,308)"/>
<path d="M0 0 C2.97 -0.103125 5.94 -0.20625 9 -0.3125 C9.91910156 -0.35802002 10.83820313 -0.40354004 11.78515625 -0.45043945 C18.08184872 -0.55506931 22.12979985 1.0011837 27 5 C29.92728991 8.38467896 30.55190311 11.39173013 30.33984375 15.87890625 C29.72636909 19.70783428 28.59410221 23.08775318 26 26 C20.33140336 29.92944639 15.24413844 30.53330396 8.5 30.25 C5.695 30.1675 2.89 30.085 0 30 C0 20.1 0 10.2 0 0 Z " fill="#0B0B0B" transform="translate(140,308)"/>
<path d="M0 0 C6 0 6 0 7.75097656 1.23754883 C8.20956055 1.80497803 8.66814453 2.37240723 9.140625 2.95703125 C9.65367187 3.57513672 10.16671875 4.19324219 10.6953125 4.83007812 C11.20835937 5.48427734 11.72140625 6.13847656 12.25 6.8125 C12.77851563 7.45509766 13.30703125 8.09769531 13.8515625 8.75976562 C16.04235021 11.44264652 18.07652789 14.11479183 20 17 C20.33 11.39 20.66 5.78 21 0 C22.98 0 24.96 0 27 0 C27 9.9 27 19.8 27 30 C21 30 21 30 18.5859375 27.76953125 C17.85632813 26.79371094 17.12671875 25.81789063 16.375 24.8125 C15.27285156 23.36810547 15.27285156 23.36810547 14.1484375 21.89453125 C13.43945312 20.93933594 12.73046875 19.98414063 12 19 C10.68 17.35 9.36 15.7 8 14 C7.67 19.28 7.34 24.56 7 30 C4.69 30 2.38 30 0 30 C0 20.1 0 10.2 0 0 Z " fill="#050505" transform="translate(259,308)"/>
<path d="M0 0 C2.05078125 0.03255208 4.1015625 0.06510417 6.15234375 0.09765625 C7.86846467 3.88476086 9.57724216 7.67506589 11.27929688 11.46850586 C11.85931992 12.75847321 12.44133864 14.04754516 13.02539062 15.33569336 C13.86464534 17.18762023 14.69666583 19.04265064 15.52734375 20.8984375 C16.03007812 22.01387939 16.5328125 23.12932129 17.05078125 24.27856445 C18.15234375 27.09765625 18.15234375 27.09765625 18.15234375 30.09765625 C15.84234375 30.09765625 13.53234375 30.09765625 11.15234375 30.09765625 C10.49234375 28.44765625 9.83234375 26.79765625 9.15234375 25.09765625 C4.20234375 24.76765625 -0.74765625 24.43765625 -5.84765625 24.09765625 C-6.50765625 26.07765625 -7.16765625 28.05765625 -7.84765625 30.09765625 C-10.15765625 30.09765625 -12.46765625 30.09765625 -14.84765625 30.09765625 C-13.57480767 26.14290297 -12.15487644 22.3257202 -10.5 18.515625 C-10.05978516 17.50177734 -9.61957031 16.48792969 -9.16601562 15.44335938 C-8.48249023 13.88004883 -8.48249023 13.88004883 -7.78515625 12.28515625 C-7.32560547 11.22361328 -6.86605469 10.16207031 -6.39257812 9.06835938 C-2.499038 0.13208446 -2.499038 0.13208446 0 0 Z " fill="#0D0D0D" transform="translate(230.84765625,307.90234375)"/>
<path d="M0 0 C1.134375 0.020625 2.26875 0.04125 3.4375 0.0625 C16.4375 25.37019231 16.4375 25.37019231 16.4375 30.0625 C14.1275 30.0625 11.8175 30.0625 9.4375 30.0625 C8.7775 28.0825 8.1175 26.1025 7.4375 24.0625 C2.4875 24.0625 -2.4625 24.0625 -7.5625 24.0625 C-8.2225 26.0425 -8.8825 28.0225 -9.5625 30.0625 C-11.8725 30.0625 -14.1825 30.0625 -16.5625 30.0625 C-14.48508341 23.33093051 -11.86507302 16.96538551 -8.9375 10.5625 C-8.53015625 9.65757812 -8.1228125 8.75265625 -7.703125 7.8203125 C-4.19031258 0.07351426 -4.19031258 0.07351426 0 0 Z " fill="#0C0C0C" transform="translate(113.5625,307.9375)"/>
<path d="M0 0 C7.26 0 14.52 0 22 0 C22 1.65 22 3.3 22 5 C16.72 5 11.44 5 6 5 C6 7.31 6 9.62 6 12 C10.95 12 15.9 12 21 12 C21 13.98 21 15.96 21 18 C16.38 18 11.76 18 7 18 C7 19.98 7 21.96 7 24 C12.28 24 17.56 24 23 24 C23 25.98 23 27.96 23 30 C15.41 30 7.82 30 0 30 C0 20.1 0 10.2 0 0 Z " fill="#0C0C0C" transform="translate(338,308)"/>
<path d="M0 0 C0.85271484 0.433125 0.85271484 0.433125 1.72265625 0.875 C1.39265625 2.195 1.06265625 3.515 0.72265625 4.875 C-1.02734375 5.5 -1.02734375 5.5 -3.27734375 5.875 C-5.27734375 4.875 -5.27734375 4.875 -7.27734375 3.875 C-11.33805998 3.27021248 -12.77823802 3.51694589 -16.15234375 5.9375 C-18.79672606 9.59296966 -18.8404324 11.450732 -18.27734375 15.875 C-17.25997604 18.63642665 -16.91563634 19.55585371 -14.27734375 20.875 C-12.20169699 21.07258231 -12.20169699 21.07258231 -9.90234375 21.0625 C-9.13148438 21.07667969 -8.360625 21.09085937 -7.56640625 21.10546875 C-5.05899487 20.85301607 -3.44472473 20.12693467 -1.27734375 18.875 C-0.28734375 19.865 0.70265625 20.855 1.72265625 21.875 C0.78809278 24.21140867 0.15161299 25.59686367 -1.98828125 26.984375 C-6.56233253 28.76404 -11.46262176 28.39132407 -16.27734375 27.875 C-21.15721368 25.6093461 -23.94439829 22.72034827 -26.27734375 17.875 C-27.07899666 12.8523991 -26.87666756 9.07364761 -24.58984375 4.5 C-17.04750878 -4.06156943 -10.07894012 -4.84596787 0 0 Z " fill="#0C0C0C" transform="translate(324.27734375,310.125)"/>
<path d="M0 0 C3.76110572 0.02155361 5.955079 0.3286021 8.875 2.75 C12.26865568 6.40470612 12.26865568 6.40470612 12.40234375 9.36328125 C12.11391882 13.76361024 11.69075386 15.89975797 8.875 19.4375 C5.35082503 21.88058748 1.85721104 22.07503546 -2.34375 21.87890625 C-5.90286321 21.11369691 -7.54393323 19.21003993 -9.6875 16.375 C-10.0175 16.045 -10.3475 15.715 -10.6875 15.375 C-11.12916754 12.32118444 -11.16973087 9.42394358 -10.6875 6.375 C-8.25 3.375 -8.25 3.375 -5.6875 1.375 C-4.05531064 -0.25718936 -2.24806873 0.08736889 0 0 Z " fill="#0C0C0C" transform="translate(250.6875,362.625)"/>
<path d="M0 0 C2.31 0 4.62 0 7 0 C10.50213658 6.50594543 13.12849037 12.84870304 15 20 C15.66 20 16.32 20 17 20 C17.391875 18.741875 17.78375 17.48375 18.1875 16.1875 C20.03884094 10.59787448 22.48545526 5.31731793 25 0 C27.31 0 29.62 0 32 0 C30.72715142 3.95475328 29.30722019 7.77193605 27.65234375 11.58203125 C27.21212891 12.59587891 26.77191406 13.60972656 26.31835938 14.65429688 C25.86267578 15.69650391 25.40699219 16.73871094 24.9375 17.8125 C24.47794922 18.87404297 24.01839844 19.93558594 23.54492188 21.02929688 C20.12773703 28.87226297 20.12773703 28.87226297 19 30 C16.66702567 30.04092937 14.33294775 30.04241723 12 30 C10.28639979 26.05097186 8.57752932 22.09994188 6.87304688 18.14697266 C6.29231849 16.80200831 5.71029255 15.45760347 5.12695312 14.11376953 C4.28956255 12.18406846 3.45683167 10.25241516 2.625 8.3203125 C2.12226563 7.15773926 1.61953125 5.99516602 1.1015625 4.79736328 C0 2 0 2 0 0 Z " fill="#090909" transform="translate(178,308)"/>
<path d="M0 0 C12.24185013 -0.40357748 12.24185013 -0.40357748 17 3 C18 4 18 4 18.25 6.8125 C17.97503293 10.31833015 17.45377858 11.54622142 15 14 C11.52674819 15.1577506 8.63932552 15.06866652 5 15 C5 16.98 5 18.96 5 21 C3.35 21 1.7 21 0 21 C0 14.07 0 7.14 0 0 Z " fill="#0B0B0B" transform="translate(215,363)"/>
<path d="M0 0 C10.06312625 -0.60621242 10.06312625 -0.60621242 14.1875 2.0625 C16.44333216 5.71850384 16.53841697 7.76958093 16 12 C15.14799915 14.62700262 14.58542145 15.63280485 12.25 17.09765625 C9.59213531 18.16357073 7.60292724 18.20007703 4.75 18.125 C3.1825 18.08375 1.615 18.0425 0 18 C0 12.06 0 6.12 0 0 Z " fill="#FBFBFB" transform="translate(380,314)"/>
<path d="M0 0 C9.91071429 -0.66964286 9.91071429 -0.66964286 13.625 2.0625 C16 5 16 5 16.625 8.5 C15.91563321 12.47245401 14.82768293 14.17231707 12 17 C9.47524538 18.26237731 7.68799534 18.09856404 4.875 18.0625 C3.26625 18.041875 1.6575 18.02125 0 18 C0 12.06 0 6.12 0 0 Z " fill="#FBFBFB" transform="translate(147,314)"/>
<path d="M0 0 C0.86625 0.01546875 1.7325 0.0309375 2.625 0.046875 C5 0.25 5 0.25 8 1.25 C7.67 2.57 7.34 3.89 7 5.25 C3.7 4.92 0.4 4.59 -3 4.25 C-2.33798171 7.41129253 -2.33798171 7.41129253 0.25 8.3828125 C1.1575 8.71023438 2.065 9.03765625 3 9.375 C7.93273543 11.18273543 7.93273543 11.18273543 9 12.25 C8.8125 15.6875 8.8125 15.6875 8 19.25 C5.02763551 21.32327455 2.43871798 21.52127593 -1.125 21.5 C-2.42824219 21.50773437 -2.42824219 21.50773437 -3.7578125 21.515625 C-6 21.25 -6 21.25 -8 19.25 C-8 18.26 -8 17.27 -8 16.25 C-4.37 16.25 -0.74 16.25 3 16.25 C3 15.59 3 14.93 3 14.25 C2.37351562 14.05664062 1.74703125 13.86328125 1.1015625 13.6640625 C0.28429687 13.40367187 -0.53296875 13.14328125 -1.375 12.875 C-2.59316406 12.49214844 -2.59316406 12.49214844 -3.8359375 12.1015625 C-6 11.25 -6 11.25 -8 9.25 C-8.55615551 4.02213823 -8.55615551 4.02213823 -6.79296875 1.57421875 C-4.41449635 -0.1824308 -2.9287026 -0.08716377 0 0 Z " fill="#121212" transform="translate(278,362.75)"/>
<path d="M0 0 C1.9375 1.125 1.9375 1.125 3 3 C3.54068562 6.63031776 3.46379841 8.32214079 1.375 11.375 C-1.69371124 13.47464453 -3.35392711 13.62060815 -7 13 C-9.59814888 10.74827097 -9.95716454 9.34982295 -10.375 5.9375 C-10 3 -10 3 -8.9375 1.125 C-5.8930714 -0.64273274 -3.4368988 -0.36823916 0 0 Z " fill="#F6F6F6" transform="translate(255,367)"/>
<path d="M0 0 C0.33 0 0.66 0 1 0 C2.49513997 7.84948483 3.57021129 16.88754185 0.6875 24.4375 C-3.41214611 28.3464649 -8.12063325 31.15650696 -13 34 C-13.33 33.34 -13.66 32.68 -14 32 C-10.77139145 28.63686609 -7.28457067 25.66377037 -3.70703125 22.68359375 C-1.02771966 20.04106904 -0.86171819 17.35746646 -0.68359375 13.76953125 C-0.64169922 12.96708984 -0.59980469 12.16464844 -0.55664062 11.33789062 C-0.51732422 10.50451172 -0.47800781 9.67113281 -0.4375 8.8125 C-0.39431641 7.96751953 -0.35113281 7.12253906 -0.30664062 6.25195312 C-0.20068482 4.16815567 -0.0998498 2.08409897 0 0 Z " fill="#F4F9EC" transform="translate(310,212)"/>
<path d="M0 0 C2 1 2 1 2.8515625 3.28515625 C3.10679687 4.20167969 3.36203125 5.11820312 3.625 6.0625 C3.88539063 6.98160156 4.14578125 7.90070313 4.4140625 8.84765625 C4.60742188 9.55792969 4.80078125 10.26820313 5 11 C2.03 11 -0.94 11 -4 11 C-2.68 7.37 -1.36 3.74 0 0 Z " fill="#ECECEC" transform="translate(232,315)"/>
<path d="M0 0 C2.96052484 3.36423277 3.92289822 6.69159287 5 11 C2.03 11 -0.94 11 -4 11 C-3.52269162 9.5410574 -3.04308958 8.08286504 -2.5625 6.625 C-2.29566406 5.81289063 -2.02882813 5.00078125 -1.75390625 4.1640625 C-1 2 -1 2 0 0 Z " fill="#EDEDED" transform="translate(113,315)"/>
<path d="M0 0 C5.75 -0.125 5.75 -0.125 8 1 C8.042721 2.66611905 8.04063832 4.33382885 8 6 C7 7 7 7 3.4375 7.0625 C2.303125 7.041875 1.16875 7.02125 0 7 C0 4.69 0 2.38 0 0 Z " fill="#F6F6F6" transform="translate(220,367)"/>
<path d="M0 0 C0.33 0 0.66 0 1 0 C2.32719886 6.96779403 2.08825381 13.92988911 2 21 C1.01 21 0.02 21 -1 21 C-0.67 14.07 -0.34 7.14 0 0 Z " fill="#FBFDF8" transform="translate(310,212)"/>
</svg>
