<?xml version="1.0" encoding="UTF-8"?>
<svg version="1.1" xmlns="http://www.w3.org/2000/svg" width="500" height="500">
<path d="M0 0 C165 0 330 0 500 0 C500 165 500 330 500 500 C335 500 170 500 0 500 C0 335 0 170 0 0 Z " fill="#000000" transform="translate(0,0)"/>
<path d="M0 0 C0.483059 1.39449109 0.96125517 2.79066707 1.4375 4.1875 C1.70433594 4.96480469 1.97117187 5.74210938 2.24609375 6.54296875 C4.33016766 13.335106 4.36315082 20.06966447 4.5 27.125 C4.55414063 28.29804688 4.60828125 29.47109375 4.6640625 30.6796875 C4.80470833 39.72120495 2.50725538 44.92289839 -3 52 C-4.06541016 53.51013672 -4.06541016 53.51013672 -5.15234375 55.05078125 C-9.29440458 60.29860011 -13.341908 64.43233608 -19 68 C-20.04285156 68.66 -21.08570313 69.32 -22.16015625 70 C-36.52627087 78.79921987 -51.3709872 82.85273216 -68.13525391 79.34375 C-76.42556392 77.29669912 -84.56128434 74.75031173 -92.68701172 72.13525391 C-102.13177244 69.17081365 -110.96592844 68.81814921 -120.8125 68.8125 C-121.92431641 68.80025391 -123.03613281 68.78800781 -124.18164062 68.77539062 C-131.33859821 68.76282721 -138.01184993 69.44990764 -145 71 C-144.47955768 65.42693017 -143.03167904 61.1610865 -140.5 56.1875 C-140.14470215 55.48826416 -139.7894043 54.78902832 -139.42333984 54.06860352 C-132.79783633 41.53914303 -122.67739239 32.88211286 -109.51953125 27.7265625 C-103.15961583 25.89254038 -96.80886526 25.84030029 -90.25 25.875 C-89.35531006 25.87693359 -88.46062012 25.87886719 -87.53881836 25.88085938 C-83.18321058 25.90939215 -78.89495577 26.01163945 -74.5625 26.5 C-69.10978098 27.09230814 -63.6674536 27.18649138 -58.1875 27.25 C-57.2787915 27.27126953 -56.37008301 27.29253906 -55.43383789 27.31445312 C-50.09979015 27.34206768 -46.70920752 26.75804054 -42 24 C-39.75499925 24.24270278 -38.59515008 24.40484992 -37 26 C-36.29693124 30.77082373 -36.47970416 34.11046194 -38.9375 38.3125 C-43.81776708 43.23006633 -49.99193633 45.22744197 -56.8046875 45.390625 C-58.8284981 45.36440984 -60.85213738 45.3172563 -62.875 45.25 C-63.90625 45.23195312 -64.9375 45.21390625 -66 45.1953125 C-67.89716477 45.16063847 -69.79421121 45.1176976 -71.69091797 45.06347656 C-73.46007012 45.01484265 -75.2301795 45 -77 45 C-65.53448518 52.90401975 -54.39190289 54.59780152 -40.72265625 52.49609375 C-29.99219055 50.02850965 -15.46268735 45.60392591 -8.734375 36.23828125 C-7.68256701 33.03250476 -7.8127371 30.11219671 -7.875 26.75 C-7.89304687 25.48671875 -7.91109375 24.2234375 -7.9296875 22.921875 C-7.95289063 21.95765625 -7.97609375 20.9934375 -8 20 C-8.03738281 20.72445312 -8.07476562 21.44890625 -8.11328125 22.1953125 C-8.83284457 32.7771261 -8.83284457 32.7771261 -12 37 C-20.72857143 44 -20.72857143 44 -23 44 C-23.0814222 41.77144426 -23.13938079 39.54202345 -23.1875 37.3125 C-23.22230469 36.07113281 -23.25710938 34.82976562 -23.29296875 33.55078125 C-22.98350575 29.80008965 -22.31596695 27.93281045 -20 25 C-19.34 25 -18.68 25 -18 25 C-18.03480469 24.04738281 -18.06960938 23.09476563 -18.10546875 22.11328125 C-18.13253906 20.85902344 -18.15960938 19.60476562 -18.1875 18.3125 C-18.22230469 17.07113281 -18.25710938 15.82976562 -18.29296875 14.55078125 C-17.9846829 10.81435679 -17.18088273 8.99370517 -15 6 C-13.35 6.33 -11.7 6.66 -10 7 C-9.54625 5.865625 -9.0925 4.73125 -8.625 3.5625 C-6.28645275 -1.56431513 -5.0882365 -1.20510864 0 0 Z " fill="#9AC958" transform="translate(319,199)"/>
<path d="M0 0 C2.19897461 -0.38818359 2.19897461 -0.38818359 4.90234375 -0.3984375 C5.87494141 -0.40230469 6.84753906 -0.40617188 7.84960938 -0.41015625 C9.37811523 -0.39275391 9.37811523 -0.39275391 10.9375 -0.375 C11.95263672 -0.38660156 12.96777344 -0.39820313 14.01367188 -0.41015625 C14.98755859 -0.40628906 15.96144531 -0.40242187 16.96484375 -0.3984375 C18.30470337 -0.39336182 18.30470337 -0.39336182 19.67163086 -0.38818359 C22 0 22 0 23.78271484 1.27416992 C25.2338601 3.33155977 25.41771766 4.5112898 25.51171875 7.01171875 C25.54716797 7.76904297 25.58261719 8.52636719 25.61914062 9.30664062 C25.65297852 10.48516602 25.65297852 10.48516602 25.6875 11.6875 C25.72166016 12.48478516 25.75582031 13.28207031 25.79101562 14.10351562 C25.87338104 16.06851904 25.93837067 18.03423696 26 20 C29.64894317 21.82447159 34.18787258 21.37255487 38.234375 21.51757812 C43.78604386 21.78604386 43.78604386 21.78604386 46 24 C46.25878906 26.21484375 46.25878906 26.21484375 46.265625 28.9375 C46.26949219 30.40316406 46.26949219 30.40316406 46.2734375 31.8984375 C46.26570313 32.92195313 46.25796875 33.94546875 46.25 35 C46.26160156 36.53527344 46.26160156 36.53527344 46.2734375 38.1015625 C46.27085937 39.07867187 46.26828125 40.05578125 46.265625 41.0625 C46.26336914 41.96097656 46.26111328 42.85945313 46.25878906 43.78515625 C46 46 46 46 44 48 C41.12303271 48.28103306 38.32070239 48.46600098 35.4375 48.5625 C30.31193734 48.29305764 30.31193734 48.29305764 26 50 C25.796421 53.58148238 25.65315924 57.15610704 25.5703125 60.7421875 C25.52390625 61.87140625 25.52390625 61.87140625 25.4765625 63.0234375 C25.45674316 63.71356934 25.43692383 64.40370117 25.41650391 65.11474609 C24.8624247 67.62271776 24.07610117 68.50208985 22 70 C19.77929688 70.38818359 19.77929688 70.38818359 17.21875 70.3984375 C16.29449219 70.40230469 15.37023437 70.40617187 14.41796875 70.41015625 C13.45503906 70.39855469 12.49210937 70.38695312 11.5 70.375 C10.53707031 70.38660156 9.57414062 70.39820313 8.58203125 70.41015625 C7.19564453 70.40435547 7.19564453 70.40435547 5.78125 70.3984375 C4.93626953 70.39505371 4.09128906 70.39166992 3.22070312 70.38818359 C0.47766229 69.90869426 -0.39808928 69.2596741 -2 67 C-2.43237305 65.00708008 -2.43237305 65.00708008 -2.51171875 62.76953125 C-2.56489258 61.56586914 -2.56489258 61.56586914 -2.61914062 60.33789062 C-2.64169922 59.50451172 -2.66425781 58.67113281 -2.6875 57.8125 C-2.72166016 56.96751953 -2.75582031 56.12253906 -2.79101562 55.25195312 C-2.87341471 53.16843351 -2.93838645 51.08423784 -3 49 C-4.26457031 48.96261719 -5.52914062 48.92523438 -6.83203125 48.88671875 C-8.4922173 48.82106167 -10.15237222 48.75461424 -11.8125 48.6875 C-12.64587891 48.66494141 -13.47925781 48.64238281 -14.33789062 48.61914062 C-15.14033203 48.58369141 -15.94277344 48.54824219 -16.76953125 48.51171875 C-17.87711792 48.47244263 -17.87711792 48.47244263 -19.00708008 48.43237305 C-21.57621976 47.8749865 -22.47222072 47.12863465 -24 45 C-24.37231445 42.87109375 -24.37231445 42.87109375 -24.36328125 40.4375 C-24.36263672 39.55835938 -24.36199219 38.67921875 -24.36132812 37.7734375 C-24.34521484 36.85820312 -24.32910156 35.94296875 -24.3125 35 C-24.31572266 34.08476562 -24.31894531 33.16953125 -24.32226562 32.2265625 C-24.26721939 25.40082908 -24.26721939 25.40082908 -22 22 C-19.1112488 21.66826333 -16.39421918 21.48740033 -13.5 21.4375 C-7.73517778 21.67530217 -7.73517778 21.67530217 -3 19 C-2.74450442 16.33181321 -2.57994937 13.73610086 -2.5 11.0625 C-2.26979167 3.4046875 -2.26979167 3.4046875 0 0 Z " fill="#007E00" transform="translate(236,129)"/>
<path d="M0 0 C1.04220703 -0.01160156 2.08441406 -0.02320312 3.15820312 -0.03515625 C23.46762403 0.04039026 40.6976265 8.80970746 55.25 22.5625 C68.85514858 36.67154298 75.80504627 54.3327018 75.625 73.75 C75.62048828 74.67683594 75.61597656 75.60367188 75.61132812 76.55859375 C75.59961574 78.83079709 75.58321372 81.10286388 75.5625 83.375 C73.9125 82.715 72.2625 82.055 70.5625 81.375 C70.53671875 80.39402344 70.5109375 79.41304688 70.484375 78.40234375 C69.69549989 57.219194 62.89303689 38.30351232 47.5625 23.375 C44.39604911 20.68351674 41.15749086 18.45299631 37.5625 16.375 C36.37914062 15.68857422 36.37914062 15.68857422 35.171875 14.98828125 C18.11862015 5.82903308 -1.92638317 3.48464136 -20.48828125 8.99609375 C-36.604441 14.33633617 -49.73379223 24.75183507 -58.4375 39.375 C-58.89640625 40.12910156 -59.3553125 40.88320312 -59.828125 41.66015625 C-68.55534511 57.40595397 -69.91789948 76.36759706 -65.35351562 93.59301758 C-62.98092552 101.59045583 -59.44630791 109.61928732 -54.21875 116.14453125 C-52.4375 118.375 -52.4375 118.375 -52.4375 120.375 C-55.4075 120.87 -55.4075 120.87 -58.4375 121.375 C-68.42682858 106.75085326 -74.00035271 92.15838958 -73.8125 74.375 C-73.82410156 73.27671875 -73.83570313 72.1784375 -73.84765625 71.046875 C-73.78887383 54.50942158 -67.69848558 40.17151869 -57.4375 27.375 C-56.62152344 26.31152344 -56.62152344 26.31152344 -55.7890625 25.2265625 C-42.31400302 8.59636714 -21.04721664 -0.23342569 0 0 Z " fill="#F3F3F3" transform="translate(246.4375,108.625)"/>
<path d="M0 0 C3.01125 -0.061875 6.0225 -0.12375 9.125 -0.1875 C10.06230957 -0.21481201 10.99961914 -0.24212402 11.96533203 -0.27026367 C17.0744602 -0.32086526 20.59171048 0.12473234 25 3 C29.23097651 7.68837937 30.32200055 10.50597115 30.203125 16.6875 C29.8380246 20.84402767 28.61832849 23.62784188 25.40625 26.35131836 C19.87122212 30.12900324 15.58913198 30.63883762 9 30.3125 C6.03 30.209375 3.06 30.10625 0 30 C0 20.1 0 10.2 0 0 Z " fill="#F7F7F7" transform="translate(372,310)"/>
<path d="M0 0 C3.01125 -0.061875 6.0225 -0.12375 9.125 -0.1875 C10.06230957 -0.21481201 10.99961914 -0.24212402 11.96533203 -0.27026367 C17.0744602 -0.32086526 20.59171048 0.12473234 25 3 C29.23097651 7.68837937 30.32200055 10.50597115 30.203125 16.6875 C29.8380246 20.84402767 28.61832849 23.62784188 25.40625 26.35131836 C19.87122212 30.12900324 15.58913198 30.63883762 9 30.3125 C6.03 30.209375 3.06 30.10625 0 30 C0 20.1 0 10.2 0 0 Z " fill="#F7F7F7" transform="translate(139,310)"/>
<path d="M0 0 C6 0 6 0 8.37890625 1.94140625 C9.09949219 2.80636719 9.82007813 3.67132813 10.5625 4.5625 C11.325625 5.46871094 12.08875 6.37492187 12.875 7.30859375 C15.37295622 10.47236551 17.74729128 13.65727093 20 17 C20.33 11.39 20.66 5.78 21 0 C23.31 0 25.62 0 28 0 C28 9.9 28 19.8 28 30 C22 30 22 30 19.3671875 27.76953125 C18.54476563 26.79371094 17.72234375 25.81789063 16.875 24.8125 C16.04742187 23.84957031 15.21984375 22.88664062 14.3671875 21.89453125 C12.22695143 19.27750991 10.11193229 16.63991537 8 14 C7.67 19.28 7.34 24.56 7 30 C4.69 30 2.38 30 0 30 C0 20.1 0 10.2 0 0 Z " fill="#F8F8F8" transform="translate(258,310)"/>
<path d="M0 0 C2.05078125 0.03255208 4.1015625 0.06510417 6.15234375 0.09765625 C8.00610995 4.2083297 9.85746007 8.32007908 11.70654297 12.43286133 C12.33640701 13.83290244 12.96693959 15.23264299 13.59814453 16.63208008 C14.50337293 18.63935655 15.40622058 20.64768865 16.30859375 22.65625 C16.59295288 23.28542831 16.87731201 23.91460663 17.17028809 24.56285095 C19.15234375 28.98378454 19.15234375 28.98378454 19.15234375 30.09765625 C16.51234375 30.09765625 13.87234375 30.09765625 11.15234375 30.09765625 C10.49234375 28.11765625 9.83234375 26.13765625 9.15234375 24.09765625 C4.20234375 24.09765625 -0.74765625 24.09765625 -5.84765625 24.09765625 C-6.50765625 26.07765625 -7.16765625 28.05765625 -7.84765625 30.09765625 C-10.15765625 30.09765625 -12.46765625 30.09765625 -14.84765625 30.09765625 C-12.77023966 23.36608676 -10.15022927 17.00054176 -7.22265625 10.59765625 C-6.8153125 9.69273437 -6.40796875 8.7878125 -5.98828125 7.85546875 C-2.48576793 0.13138308 -2.48576793 0.13138308 0 0 Z " fill="#F2F2F2" transform="translate(229.84765625,309.90234375)"/>
<path d="M0 0 C1.134375 0.020625 2.26875 0.04125 3.4375 0.0625 C16.4375 25.48185484 16.4375 25.48185484 16.4375 30.0625 C14.1275 30.0625 11.8175 30.0625 9.4375 30.0625 C8.7775 28.0825 8.1175 26.1025 7.4375 24.0625 C2.4875 24.0625 -2.4625 24.0625 -7.5625 24.0625 C-8.2225 26.0425 -8.8825 28.0225 -9.5625 30.0625 C-11.8725 30.0625 -14.1825 30.0625 -16.5625 30.0625 C-14.48508341 23.33093051 -11.86507302 16.96538551 -8.9375 10.5625 C-8.53015625 9.65757812 -8.1228125 8.75265625 -7.703125 7.8203125 C-4.19031258 0.07351426 -4.19031258 0.07351426 0 0 Z " fill="#F2F2F2" transform="translate(112.5625,309.9375)"/>
<path d="M0 0 C7.26 0 14.52 0 22 0 C22 1.65 22 3.3 22 5 C17.05 5 12.1 5 7 5 C7 7.31 7 9.62 7 12 C11.62 12 16.24 12 21 12 C21 13.65 21 15.3 21 17 C16.38 17 11.76 17 7 17 C7 19.31 7 21.62 7 24 C12.28 24 17.56 24 23 24 C23 25.98 23 27.96 23 30 C15.41 30 7.82 30 0 30 C0 20.1 0 10.2 0 0 Z " fill="#F9F9F9" transform="translate(337,310)"/>
<path d="M0 0 C1.9569579 0.96125221 3.84621489 1.97429092 5.71875 3.08984375 C5.71875 4.07984375 5.71875 5.06984375 5.71875 6.08984375 C3.71875 7.77734375 3.71875 7.77734375 1.71875 9.08984375 C0.6978125 8.31640625 0.6978125 8.31640625 -0.34375 7.52734375 C-4.20760729 5.63651997 -6.18206728 5.89735423 -10.28125 7.08984375 C-13.17482127 9.68663848 -14.14214908 11.25523822 -14.78125 15.08984375 C-14.12948663 19.00042394 -13.34987356 20.54513153 -10.28125 23.08984375 C-5.44050307 23.95140788 -1.56690638 23.51513566 2.71875 21.08984375 C4.03875 22.07984375 5.35875 23.06984375 6.71875 24.08984375 C5.7924692 26.40554574 5.14753383 27.80664699 3.0390625 29.19921875 C-2.8631547 31.46471626 -10.10960336 31.00422128 -15.84375 28.58984375 C-19.96017724 24.36786709 -22.43830817 19.9320316 -22.78125 13.96484375 C-22.11037431 8.76555716 -20.54167022 5.9851961 -16.515625 2.609375 C-11.08221554 -1.20898558 -6.29827727 -2.51284007 0 0 Z " fill="#F1F1F1" transform="translate(319.28125,309.91015625)"/>
<path d="M0 0 C2.64 0 5.28 0 8 0 C10.64 6.27 13.28 12.54 16 19 C20.75499944 9.61684778 20.75499944 9.61684778 25 0 C27.31 0 29.62 0 32 0 C29.8197371 6.87947032 27.19745965 13.45055898 24.3125 20.0625 C23.89677734 21.02349609 23.48105469 21.98449219 23.05273438 22.97460938 C22.03848513 25.31787486 21.02085998 27.65960887 20 30 C17.36 30 14.72 30 12 30 C10.28639979 26.05097186 8.57752932 22.09994188 6.87304688 18.14697266 C6.29231849 16.80200831 5.71029255 15.45760347 5.12695312 14.11376953 C4.28956255 12.18406846 3.45683167 10.25241516 2.625 8.3203125 C2.12226563 7.15773926 1.61953125 5.99516602 1.1015625 4.79736328 C0 2 0 2 0 0 Z " fill="#F5F5F5" transform="translate(177,310)"/>
<path d="M0 0 C12.24185013 -0.40357748 12.24185013 -0.40357748 17 3 C18 4 18 4 18.25 7.3125 C17.99337817 11.09767206 17.56295176 12.33025858 15 15 C15.495 15.61875 15.99 16.2375 16.5 16.875 C18 19 18 19 18 21 C15.6875 21.25 15.6875 21.25 13 21 C11.02389614 18.95575462 10 17.8823175 10 15 C8.35 15 6.7 15 5 15 C5 16.98 5 18.96 5 21 C3.35 21 1.7 21 0 21 C0 14.07 0 7.14 0 0 Z " fill="#F8F8F8" transform="translate(256,363)"/>
<path d="M0 0 C10.0364136 -0.60460323 10.0364136 -0.60460323 14.1875 2 C16.70543006 6.16760838 16.68931628 8.17478601 16 13 C14.12984906 15.43119623 12.71861655 16.64069173 10 18 C8.29297265 18.06996014 6.58331997 18.08440154 4.875 18.0625 C3.26625 18.041875 1.6575 18.02125 0 18 C0 12.06 0 6.12 0 0 Z " fill="#030303" transform="translate(379,316)"/>
<path d="M0 0 C10.0364136 -0.60460323 10.0364136 -0.60460323 14.1875 2 C16.70543006 6.16760838 16.68931628 8.17478601 16 13 C14.12984906 15.43119623 12.71861655 16.64069173 10 18 C8.29297265 18.06996014 6.58331997 18.08440154 4.875 18.0625 C3.26625 18.041875 1.6575 18.02125 0 18 C0 12.06 0 6.12 0 0 Z " fill="#030303" transform="translate(146,316)"/>
<path d="M0 0 C1.98 0 3.96 0 6 0 C7.34242421 2.93342898 8.67234067 5.87236252 10 8.8125 C10.3815625 9.64587891 10.763125 10.47925781 11.15625 11.33789062 C11.5171875 12.14033203 11.878125 12.94277344 12.25 13.76953125 C12.58515625 14.50792236 12.9203125 15.24631348 13.265625 16.00708008 C14 18 14 18 14 21 C12.35 21 10.7 21 9 21 C8.67 19.68 8.34 18.36 8 17 C4.37 17 0.74 17 -3 17 C-3.33 18.32 -3.66 19.64 -4 21 C-5.65 21 -7.3 21 -9 21 C-6.32365696 13.80458592 -3.59434934 6.78932652 0 0 Z " fill="#EEEEEE" transform="translate(235,363)"/>
<path d="M0 0 C5.61 0 11.22 0 17 0 C17 1.32 17 2.64 17 4 C13.37 4 9.74 4 6 4 C6 5.32 6 6.64 6 8 C8.97 8 11.94 8 15 8 C15 9.32 15 10.64 15 12 C11.7 12 8.4 12 5 12 C5 13.65 5 15.3 5 17 C8.96 17 12.92 17 17 17 C17 18.32 17 19.64 17 21 C11.39 21 5.78 21 0 21 C0 14.07 0 7.14 0 0 Z " fill="#E9E9E9" transform="translate(282,363)"/>
<path d="M0 0 C4.8044072 0.02061977 4.8044072 0.02061977 7.8125 2.3125 C8.493125 3.3025 8.493125 3.3025 9.1875 4.3125 C7.2075 5.3025 7.2075 5.3025 5.1875 6.3125 C4.8575 5.9825 4.5275 5.6525 4.1875 5.3125 C0.72928598 5.06246036 0.72928598 5.06246036 -2.8125 5.3125 C-5.11996414 7.19023264 -5.11996414 7.19023264 -5.0625 10.25 C-5.04767754 13.48532787 -5.04767754 13.48532787 -2.8125 16.3125 C0.72422026 16.62004089 3.79795199 16.35543785 7.1875 15.3125 C8.1775 16.7975 8.1775 16.7975 9.1875 18.3125 C5.33295903 21.65963027 2.57390237 21.87419652 -2.3984375 21.7421875 C-6.06816441 21.08899986 -7.65394922 19.23698816 -9.8125 16.3125 C-11.41979993 13.09790014 -11.43180855 9.78861897 -10.8125 6.3125 C-8.375 3.375 -8.375 3.375 -5.8125 1.3125 C-4.16284831 -0.33715169 -2.2648645 0.06300502 0 0 Z " fill="#F2F2F2" transform="translate(211.8125,362.6875)"/>
<path d="M0 0 C0.33 0 0.66 0 1 0 C2.49513997 7.84948483 3.57021129 16.88754185 0.6875 24.4375 C-3.41214611 28.3464649 -8.12063325 31.15650696 -13 34 C-13.33 33.34 -13.66 32.68 -14 32 C-11.17589976 29.07130346 -8.27847819 26.41572077 -5 24 C-4.34 24 -3.68 24 -3 24 C-0.94277412 18.83184719 -0.58486681 14.1077704 -0.375 8.625 C-0.31699219 7.37783203 -0.31699219 7.37783203 -0.2578125 6.10546875 C-0.16425754 4.07064844 -0.08107287 2.03535584 0 0 Z " fill="#101509" transform="translate(310,212)"/>
<path d="M0 0 C2 1 2 1 2.8515625 3.28515625 C3.10679687 4.20167969 3.36203125 5.11820312 3.625 6.0625 C3.88539063 6.98160156 4.14578125 7.90070313 4.4140625 8.84765625 C4.60742188 9.55792969 4.80078125 10.26820313 5 11 C2.03 11 -0.94 11 -4 11 C-2.68 7.37 -1.36 3.74 0 0 Z " fill="#141414" transform="translate(231,317)"/>
<path d="M0 0 C2.22825644 2.22825644 2.69239369 3.65761628 3.625 6.625 C3.88539062 7.44226563 4.14578125 8.25953125 4.4140625 9.1015625 C4.60742188 9.72804688 4.80078125 10.35453125 5 11 C2.03 11 -0.94 11 -4 11 C-3.52269162 9.5410574 -3.04308958 8.08286504 -2.5625 6.625 C-2.29566406 5.81289063 -2.02882813 5.00078125 -1.75390625 4.1640625 C-1 2 -1 2 0 0 Z " fill="#131313" transform="translate(112,317)"/>
<path d="M0 0 C5.75 -0.125 5.75 -0.125 8 1 C8.042721 2.66611905 8.04063832 4.33382885 8 6 C7 7 7 7 3.4375 7.0625 C2.303125 7.041875 1.16875 7.02125 0 7 C0 4.69 0 2.38 0 0 Z " fill="#050505" transform="translate(261,367)"/>
<path d="M0 0 C0.33 0 0.66 0 1 0 C2.32719886 6.96779403 2.08825381 13.92988911 2 21 C1.01 21 0.02 21 -1 21 C-0.67 14.07 -0.34 7.14 0 0 Z " fill="#050703" transform="translate(310,212)"/>
<path d="M0 0 C2.50037734 2.17424117 3.43628586 3.73045798 4 7 C2.02 7 0.04 7 -2 7 C-1.125 2.25 -1.125 2.25 0 0 Z " fill="#212121" transform="translate(237,369)"/>
</svg>
